<?xml version="1.0" encoding="utf-8"?>
<!-- Generator: Adobe Illustrator 23.0.3, SVG Export Plug-In . SVG Version: 6.00 Build 0)  -->
<svg version="1.1" id="a259f86b-03f4-47ac-adca-e0b316d45eda"
	 xmlns="http://www.w3.org/2000/svg" xmlns:xlink="http://www.w3.org/1999/xlink" x="0px" y="0px" viewBox="0 0 888 650.6"
	 style="enable-background:new 0 0 888 650.6;" xml:space="preserve">
<style type="text/css">
	.st0{fill:#808080;}
	.st1{fill:#3F3D56;}
	.st2{fill:#FFFFFF;}
	.st3{fill:#6C63FF;}
	.st4{fill:#E6E6E6;}
	.st5{fill:#2F2E41;}
	.st6{fill:#FBBEBE;}
</style>
<title>mobile_devices</title>
<polygon class="st0" points="467.1,645.1 459.6,645.1 462.1,499.9 464.6,499.9 "/>
<path class="st0" d="M472.9,408.4l12-18.5c-3.5-9.8-7.6-19.4-12.3-28.7l-7.7,6.2l6.1-9.5c-5.8-11.5-10.4-18.7-10.4-18.7
	s-24,37.8-32,77.8l15.4,23.7l-17-13.7c-0.6,4.7-0.9,9.4-0.9,14.1c0,47.4,15.5,85.9,34.6,85.9s34.6-38.4,34.6-85.9
	c0-14.7-3.3-30.1-7.9-44.3L472.9,408.4z"/>
<polygon class="st0" points="279,645.1 271.6,645.1 274.1,499.9 276.5,499.9 "/>
<path class="st0" d="M287.7,408.4l12-18.5c-3.5-9.8-7.6-19.4-12.3-28.7l-7.7,6.2l6.1-9.5c-5.8-11.5-10.4-18.7-10.4-18.7
	s-24,37.8-32,77.8l15.4,23.7l-17-13.7c-0.6,4.7-0.9,9.4-0.9,14.1c0,47.4,15.5,85.9,34.6,85.9s34.6-38.4,34.6-85.9
	c0-14.7-3.3-30.1-7.9-44.3L287.7,408.4z"/>
<polygon class="st0" points="371.3,644.7 356.4,644.7 361.4,346 366.3,346 "/>
<path class="st0" d="M384.2,157.7l24.7-38.1c-7.3-20.2-15.8-40-25.3-59.2l-16,12.9l12.6-19.5c-12-23.7-21.5-38.6-21.5-38.6
	s-49.5,78-66,160.5l31.7,48.9l-35-28.3c-1.2,9.6-1.9,19.3-1.9,29c0,97.8,31.9,177,71.3,177S430,323,430,225.2
	c0-30.3-6.9-62-16.3-91.4L384.2,157.7z"/>
<circle class="st0" cx="299.2" cy="68.5" r="68.5"/>
<rect y="644.2" class="st1" width="888" height="2.2"/>
<path class="st1" d="M799.2,292.4c1.6,0,2.8-1.3,2.8-2.8v0v-30.1c0-1.5-1.2-2.8-2.8-2.8c-0.3,0-0.7,0.1-1,0.2v-34
	c0-5.2-4.2-9.4-9.4-9.4h0H481.3c-5.2,0-9.4,4.2-9.4,9.4c0,0,0,0,0,0v412.9c0,5.2,4.2,9.4,9.4,9.4h307.5c5.2,0,9.4-4.2,9.4-9.4V334.6
	c1.4,0.5,3.1-0.2,3.6-1.7c0.1-0.3,0.2-0.7,0.2-1v-30.1c0-1.5-1.2-2.8-2.8-2.8c-0.3,0-0.7,0.1-1,0.2v-6.9
	C798.6,292.4,798.9,292.4,799.2,292.4z"/>
<path class="st2" d="M770.1,231.8c5.2,0,9.4,4.2,9.4,9.4c0,0,0,0,0,0v376.2c0,5.2-4.2,9.4-9.4,9.4H500.2c-5.2,0-9.4-4.2-9.4-9.4
	V241.2c0-5.2,4.2-9.4,9.4-9.4H770.1"/>
<circle class="st2" cx="635.1" cy="222.8" r="3.8"/>
<rect x="515.6" y="281.1" class="st3" width="231.2" height="23"/>
<rect x="515.6" y="335.2" class="st4" width="231.2" height="8.7"/>
<rect x="515.6" y="361.8" class="st4" width="231.2" height="8.7"/>
<rect x="515.6" y="388.7" class="st4" width="119.4" height="8.7"/>
<rect x="515.6" y="416" class="st4" width="231.2" height="8.7"/>
<rect x="515.6" y="443.4" class="st4" width="231.2" height="8.7"/>
<rect x="515.6" y="470.8" class="st4" width="115.4" height="8.7"/>
<rect x="515.6" y="498.2" class="st4" width="231.2" height="8.7"/>
<rect x="515.6" y="525.5" class="st4" width="231.2" height="8.7"/>
<rect x="674.1" y="559.1" class="st3" width="73" height="24"/>
<path class="st1" d="M267.9,366.1h-1.6v-54.8c0-17.6-14.3-31.8-31.8-31.8h0H117.8c-17.6,0-31.8,14.3-31.8,31.8c0,0,0,0,0,0v302
	c0,17.6,14.3,31.8,31.8,31.8h116.7c17.6,0,31.8-14.3,31.8-31.8V405h1.6L267.9,366.1z"/>
<path class="st2" d="M259.2,309.1v303.4c0,13.1-10.6,23.8-23.8,23.8l0,0H118.5c-13.1,0-23.8-10.6-23.8-23.8V309.1
	c0-11.8,9.6-21.4,21.4-21.4h16.5c-1.3,3.2-1.1,6.7,0.5,9.7c1.9,3.3,5.4,5.5,9.3,5.6h68c3.9-0.2,7.3-2.3,9.3-5.6
	c1.6-3,1.8-6.6,0.5-9.7h17.5C249.6,287.7,259.2,297.3,259.2,309.1z"/>
<path class="st5" d="M394.6,226.8c0,0-12.4-4.4-20.4,13.3s-20.4,37.2-20.4,37.2l7.1,1.8c0,0,1.8-12.4,6.2-14.2l-1.8,15.9
	c0,0,53.2,18.6,77.1-1.8l-0.9-6.2c0,0,3.5,0.9,3.5,6.2l2.7-2.7c0,0-2.7-5.3-10.6-12.4c-5.2-4.7-7-13.5-7.6-19
	c-0.5-4.6-2.3-9-5.3-12.5C418.9,226.3,409.2,219.7,394.6,226.8z"/>
<polygon class="st6" points="321.8,378.8 333.4,393.5 340.8,385.1 334.4,374.5 "/>
<polygon class="st6" points="317.6,605.4 313.4,627.6 323.9,632.8 331.3,627.6 331.3,605.4 "/>
<polygon class="st6" points="391.4,605.4 395.6,627.6 385.1,632.8 377.7,627.6 377.7,605.4 "/>
<polygon class="st5" points="348.2,406.2 333.4,511.6 312.3,607.5 337.6,610.7 357.6,521.1 382.9,445.2 379.8,535.8 374.5,610.7 
	393.5,610.7 407.2,509.5 422.3,434.2 422,406.2 "/>
<path class="st5" d="M320.7,625.5c0,0-5.3-6.3-8.4-3.2s-10.5,15.8-10.5,15.8s-16.9,9.5-3.2,11.6s17.9,0,17.9-1.1s2.1-4.2,2.1-4.2
	l5.3,1.1l7.4-2.1c0,0,3.2-19.4,0-18.7S321.8,628.6,320.7,625.5z"/>
<path class="st5" d="M388.2,625.5c0,0,5.3-6.3,8.4-3.2s10.5,15.8,10.5,15.8s16.9,9.5,3.2,11.6s-17.9,0-17.9-1.1s-2.1-4.2-2.1-4.2
	l-5.3,1.1l-7.4-2.1c0,0-3.2-19.4,0-18.7S387.2,628.6,388.2,625.5z"/>
<circle class="st6" cx="398.2" cy="260.1" r="21.1"/>
<path class="st6" d="M412.5,273.3c0,0-2.1,17.9-1.1,22.1s3.2,10.5,3.2,10.5l-33.7-6.3c0,0,9.5-20,7.4-23.2S412.5,273.3,412.5,273.3z
	"/>
<path class="st3" d="M415.6,298.6l-34.8-7.4l-20,122.3c9-2.5,18.6-2.1,27.4,1.1c14.8,5.3,34.8,0,34.8,0l-4.2-114.9L415.6,298.6z"/>
<path class="st5" d="M387.9,281.6l-12.4,6.5l-15.8,3.2l-16.9,40.1l2.1,28.5c0,0-17.9,32.7-20,50.6c0,0,2.1,27.4,36.9,26.4l23.2-64.3
	c0,0,9.5-48.5,0-62.2C385.1,310.2,391.8,284.5,387.9,281.6z"/>
<path class="st5" d="M366.1,291.2l-3.4-0.6l-2.9,0.6c0,0-7.4,1.1-15.8,8.4s-36.9,30.6-39,36.9s-1.1,16.9,2.1,23.2s9.5,14.8,9.5,14.8
	l3.2,7.4l17.9-5.3c0,0-11.6-22.1-10.5-31.6l21.1-16.9L366.1,291.2z"/>
<path class="st5" d="M411.3,286.3l15.9,19.7l8.4,10.5l-10.5,35.8l-5.3,30.6c0,0,12.7,48.5,2.1,63.3c0,0-6.3,7.4-8.4-1.1
	s-2.1-48.5-2.1-48.5s-8.4-52.7-4.2-66.4S407,288.8,411.3,286.3z"/>
<path class="st6" d="M426.2,438.8v10.5c0,0-2.1,34.8,8.4,30.6s3.2-30.6,3.2-30.6l-1.1-11.6L426.2,438.8z"/>
<path class="st5" d="M374.7,261.3c8-5.8,14.5-12.5,18.8-20.4c0,0,14.7,16.4,23.7,17.2s0.8-19.6,0.8-19.6l-16.4-4.1l-15.5,1.6
	l-12.3,8.2L374.7,261.3z"/>
<polygon class="st5" points="427.2,313.4 435.7,316.5 436.7,327.1 440.9,391.4 438.8,439.9 423,441 417.7,387.2 415.6,328.1 "/>
<rect x="112.6" y="373.7" class="st3" width="128.2" height="12.7"/>
<rect x="112.6" y="403.7" class="st4" width="128.2" height="4.8"/>
<rect x="112.6" y="418.4" class="st4" width="128.2" height="4.8"/>
<rect x="112.6" y="433.3" class="st4" width="66.2" height="4.8"/>
<rect x="112.6" y="448.5" class="st4" width="128.2" height="4.8"/>
<rect x="112.6" y="463.7" class="st4" width="128.2" height="4.8"/>
<rect x="112.6" y="478.8" class="st4" width="64" height="4.8"/>
<rect x="112.6" y="494" class="st4" width="128.2" height="4.8"/>
<rect x="112.6" y="509.2" class="st4" width="128.2" height="4.8"/>
<rect x="200.5" y="527.8" class="st3" width="40.5" height="13.3"/>
</svg>
